<svg width="202" height="84" viewBox="0 0 202 84" fill="none" xmlns="http://www.w3.org/2000/svg">
<g clip-path="url(#clip0_0_159)" filter="url(#filter0_d_0_159)">
<rect x="20" y="18" width="162" height="44" rx="22" fill="#FF6565"/>
<path d="M55.9016 45.168C55.323 45.168 54.777 45.07 54.2636 44.874C53.7503 44.6687 53.2976 44.37 52.9056 43.978C52.523 43.586 52.2196 43.1007 51.9956 42.522C51.7716 41.934 51.6596 41.2573 51.6596 40.492C51.6596 39.736 51.7763 39.064 52.0096 38.476C52.243 37.8787 52.5556 37.3747 52.9476 36.964C53.3396 36.5533 53.797 36.2407 54.3196 36.026C54.8423 35.8113 55.393 35.704 55.9716 35.704C56.5596 35.704 57.087 35.8253 57.5536 36.068C58.0203 36.3013 58.4076 36.5767 58.7156 36.894L57.6236 38.21C57.3903 37.9953 57.143 37.8227 56.8816 37.692C56.6296 37.552 56.3403 37.482 56.0136 37.482C55.7056 37.482 55.4116 37.552 55.1316 37.692C54.861 37.8227 54.623 38.014 54.4176 38.266C54.2216 38.518 54.063 38.826 53.9416 39.19C53.8296 39.554 53.7736 39.9647 53.7736 40.422C53.7736 41.3647 53.9743 42.0973 54.3756 42.62C54.777 43.1333 55.3136 43.39 55.9856 43.39C56.359 43.39 56.6903 43.3107 56.9796 43.152C57.2783 42.984 57.5396 42.7787 57.7636 42.536L58.8556 43.824C58.0903 44.72 57.1056 45.168 55.9016 45.168ZM62.3841 40.38L62.1601 41.22H64.1061L63.8961 40.38C63.7654 39.9227 63.6394 39.4373 63.5181 38.924C63.3967 38.4107 63.2754 37.916 63.1541 37.44H63.0981C62.9861 37.9253 62.8694 38.4247 62.7481 38.938C62.6361 39.442 62.5147 39.9227 62.3841 40.38ZM59.0801 45L61.9361 35.872H64.4141L67.2701 45H65.0861L64.5261 42.83H61.7401L61.1801 45H59.0801ZM68.2675 45V35.872H70.3255V43.264H73.9375V45H68.2675ZM75.5135 45V35.872H77.5715V43.264H81.1835V45H75.5135ZM87.3404 45V37.608H84.8344V35.872H91.9184V37.608H89.4124V45H87.3404ZM96.6552 45.168C96.0392 45.168 95.4745 45.0607 94.9612 44.846C94.4572 44.622 94.0232 44.3047 93.6592 43.894C93.2952 43.4833 93.0105 42.984 92.8052 42.396C92.6092 41.808 92.5112 41.1407 92.5112 40.394C92.5112 39.6473 92.6092 38.9847 92.8052 38.406C93.0105 37.818 93.2952 37.328 93.6592 36.936C94.0232 36.5347 94.4572 36.2313 94.9612 36.026C95.4745 35.8113 96.0392 35.704 96.6552 35.704C97.2712 35.704 97.8312 35.8113 98.3352 36.026C98.8485 36.2313 99.2872 36.5347 99.6512 36.936C100.015 37.3373 100.295 37.832 100.491 38.42C100.697 38.9987 100.799 39.6567 100.799 40.394C100.799 41.1407 100.697 41.808 100.491 42.396C100.295 42.984 100.015 43.4833 99.6512 43.894C99.2872 44.3047 98.8485 44.622 98.3352 44.846C97.8312 45.0607 97.2712 45.168 96.6552 45.168ZM96.6552 43.39C97.2805 43.39 97.7752 43.124 98.1392 42.592C98.5032 42.0507 98.6852 41.318 98.6852 40.394C98.6852 39.4793 98.5032 38.7653 98.1392 38.252C97.7752 37.7387 97.2805 37.482 96.6552 37.482C96.0299 37.482 95.5352 37.7387 95.1712 38.252C94.8072 38.7653 94.6252 39.4793 94.6252 40.394C94.6252 41.318 94.8072 42.0507 95.1712 42.592C95.5352 43.124 96.0299 43.39 96.6552 43.39ZM107.46 40.38L107.236 41.22H109.182L108.972 40.38C108.842 39.9227 108.716 39.4373 108.594 38.924C108.473 38.4107 108.352 37.916 108.23 37.44H108.174C108.062 37.9253 107.946 38.4247 107.824 38.938C107.712 39.442 107.591 39.9227 107.46 40.38ZM104.156 45L107.012 35.872H109.49L112.346 45H110.162L109.602 42.83H106.816L106.256 45H104.156ZM117.015 45.168C116.436 45.168 115.89 45.07 115.377 44.874C114.864 44.6687 114.411 44.37 114.019 43.978C113.636 43.586 113.333 43.1007 113.109 42.522C112.885 41.934 112.773 41.2573 112.773 40.492C112.773 39.736 112.89 39.064 113.123 38.476C113.356 37.8787 113.669 37.3747 114.061 36.964C114.453 36.5533 114.91 36.2407 115.433 36.026C115.956 35.8113 116.506 35.704 117.085 35.704C117.673 35.704 118.2 35.8253 118.667 36.068C119.134 36.3013 119.521 36.5767 119.829 36.894L118.737 38.21C118.504 37.9953 118.256 37.8227 117.995 37.692C117.743 37.552 117.454 37.482 117.127 37.482C116.819 37.482 116.525 37.552 116.245 37.692C115.974 37.8227 115.736 38.014 115.531 38.266C115.335 38.518 115.176 38.826 115.055 39.19C114.943 39.554 114.887 39.9647 114.887 40.422C114.887 41.3647 115.088 42.0973 115.489 42.62C115.89 43.1333 116.427 43.39 117.099 43.39C117.472 43.39 117.804 43.3107 118.093 43.152C118.392 42.984 118.653 42.7787 118.877 42.536L119.969 43.824C119.204 44.72 118.219 45.168 117.015 45.168ZM122.969 45V37.608H120.463V35.872H127.547V37.608H125.041V45H122.969ZM128.971 45V35.872H131.029V45H128.971ZM136.892 45.168C136.276 45.168 135.711 45.0607 135.198 44.846C134.694 44.622 134.26 44.3047 133.896 43.894C133.532 43.4833 133.247 42.984 133.042 42.396C132.846 41.808 132.748 41.1407 132.748 40.394C132.748 39.6473 132.846 38.9847 133.042 38.406C133.247 37.818 133.532 37.328 133.896 36.936C134.26 36.5347 134.694 36.2313 135.198 36.026C135.711 35.8113 136.276 35.704 136.892 35.704C137.508 35.704 138.068 35.8113 138.572 36.026C139.085 36.2313 139.524 36.5347 139.888 36.936C140.252 37.3373 140.532 37.832 140.728 38.42C140.933 38.9987 141.036 39.6567 141.036 40.394C141.036 41.1407 140.933 41.808 140.728 42.396C140.532 42.984 140.252 43.4833 139.888 43.894C139.524 44.3047 139.085 44.622 138.572 44.846C138.068 45.0607 137.508 45.168 136.892 45.168ZM136.892 43.39C137.517 43.39 138.012 43.124 138.376 42.592C138.74 42.0507 138.922 41.318 138.922 40.394C138.922 39.4793 138.74 38.7653 138.376 38.252C138.012 37.7387 137.517 37.482 136.892 37.482C136.266 37.482 135.772 37.7387 135.408 38.252C135.044 38.7653 134.862 39.4793 134.862 40.394C134.862 41.318 135.044 42.0507 135.408 42.592C135.772 43.124 136.266 43.39 136.892 43.39ZM142.752 45V35.872H144.866L147.246 40.408L148.142 42.424H148.198C148.151 41.9387 148.095 41.3973 148.03 40.8C147.974 40.2027 147.946 39.6333 147.946 39.092V35.872H149.906V45H147.792L145.412 40.45L144.516 38.462H144.46C144.506 38.966 144.558 39.5073 144.614 40.086C144.679 40.6647 144.712 41.2247 144.712 41.766V45H142.752Z" fill="white"/>
</g>
<defs>
<filter id="filter0_d_0_159" x="0" y="0" width="202" height="84" filterUnits="userSpaceOnUse" color-interpolation-filters="sRGB">
<feFlood flood-opacity="0" result="BackgroundImageFix"/>
<feColorMatrix in="SourceAlpha" type="matrix" values="0 0 0 0 0 0 0 0 0 0 0 0 0 0 0 0 0 0 127 0" result="hardAlpha"/>
<feOffset dy="2"/>
<feGaussianBlur stdDeviation="10"/>
<feColorMatrix type="matrix" values="0 0 0 0 0 0 0 0 0 0 0 0 0 0 0 0 0 0 0.5 0"/>
<feBlend mode="normal" in2="BackgroundImageFix" result="effect1_dropShadow_0_159"/>
<feBlend mode="normal" in="SourceGraphic" in2="effect1_dropShadow_0_159" result="shape"/>
</filter>
<clipPath id="clip0_0_159">
<rect width="162" height="44" fill="white" transform="translate(20 18)"/>
</clipPath>
</defs>
</svg>
